{"title":"Star.Trek.2009.iTALiAN.LD.DVDRip.XviD-SiLENT[survivalofmisa]","uid":5101239,"size":1154514944,"categoryP":"video","categoryS":"movies","magnet":"?xt=urn:btih:fde97d45b77fdfc42afb4f123728addab80618e9&amp;dn=Star.Trek.2009.iTALiAN.LD.DVDRip.XviD-SiLENT%5Bsurvivalofmisa%5D&amp;tr=udp%3A%2F%2Ftracker.openbittorrent.com%3A80&amp;tr=udp%3A%2F%2Fopen.demonii.com%3A1337&amp;tr=udp%3A%2F%2Ftracker.coppersurfer.tk%3A6969&amp;tr=udp%3A%2F%2Fexodus.desync.com%3A6969","seeders":0,"leechers":0,"uploader":"misafor","files":2,"time":1253994482,"description":"[img]http://img117.imageshack.us/img117/5444/startrek11.jpg[/img]\n\n\n[b]Titolo originale: Star Trek\nNazione: Stati Uniti\nAnno: 2009\nGenere: Fantascienza\nDurata: 127'\nRegia: J.J. Abrams\nSito ufficiale: http://www.startrek.com/...\nSito italiano: http://www.cinema.universalpictures.it/...\n\nCast: Chris Pine, Zachary Quinto, Eric Bana, Simon Pegg, Winona Ryder, Zoe Saldana, Karl Urban, John Cho, Bruce Greenwood\nProduzione: Paramount Pictures\nDistribuzione: UIP\nData di uscita: 08 Maggio 2009 (cinema)[/b]\n\n\n[code]General\nComplete name                    : Star.Trek.2009.iTALiAN.LD.DVDRip.XviD-SiLENT.CD2[survivalofmisa].avi\nFormat                           : AVI\nFormat/Info                      : Audio Video Interleave\nFile size                        : 549 MiB\nDuration                         : 1h 4mn\nOverall bit rate                 : 1 194 Kbps\nWriting application              : VirtualDubMod 1.5.10.2 (build 2542/release)\nWriting library                  : VirtualDubMod build 2542/release\n\nVideo\nID                               : 0\nFormat                           : MPEG-4 Visual\nFormat profile                   : Simple@L3\nFormat settings, BVOP            : Yes\nFormat settings, QPel            : No\nFormat settings, GMC             : No warppoints\nFormat settings, Matrix          : Default (MPEG)\nMuxing mode                      : Packed bitstream\nCodec ID                         : XVID\nCodec ID/Hint                    : XviD\nDuration                         : 1h 4mn\nBit rate                         : 1 068 Kbps\nWidth                            : 640 pixels\nHeight                           : 272 pixels\nDisplay aspect ratio             : 2.35:1\nFrame rate                       : 23.976 fps\nResolution                       : 24 bits\nColorimetry                      : 4:2:0\nScan type                        : Progressive\nBits/(Pixel*Frame)               : 0.256\nStream size                      : 490 MiB (89%)\nWriting library                  : XviD 1.0.3 (UTC 2004-12-20)\n\nAudio\nID                               : 1\nFormat                           : MPEG Audio\nFormat version                   : Version 1\nFormat profile                   : Layer 3\nCodec ID                         : 55\nCodec ID/Hint                    : MP3\nDuration                         : 1h 4mn\nBit rate mode                    : Variable\nBit rate                         : 114 Kbps\nNominal bit rate                 : 128 Kbps\nChannel(s)                       : 2 channels\nSampling rate                    : 48.0 KHz\nResolution                       : 16 bits\nStream size                      : 52.3 MiB (10%)\nAlignment                        : Aligned on interleaves\nInterleave, duration             : 24 ms (0.58 video frame)\nInterleave, preload duration     : 500 ms\nWriting library                  : LAME3.99a\nEncoding settings                : -m j -V 4 -q 3 -lowpass 17 --abr 128\n[/code]\n\n\n\nmore info: survivalofmisa.altervista.","torrent":{"xt":"urn:btih:fde97d45b77fdfc42afb4f123728addab80618e9","amp;dn":"Star.Trek.2009.iTALiAN.LD.DVDRip.XviD-SiLENT%5Bsurvivalofmisa%5D","amp;tr":["udp%3A%2F%2Ftracker.openbittorrent.com%3A80","udp%3A%2F%2Fopen.demonii.com%3A1337","udp%3A%2F%2Ftracker.coppersurfer.tk%3A6969","udp%3A%2F%2Fexodus.desync.com%3A6969"],"infoHash":"fde97d45b77fdfc42afb4f123728addab80618e9","infoHashBuffer":{"type":"Buffer","data":[253,233,125,69,183,127,223,196,42,251,79,18,55,40,173,218,184,6,24,233]},"announce":[],"urlList":[]}}